<svg width="75" height="87" viewBox="0 0 75 87" fill="none" xmlns="http://www.w3.org/2000/svg">
<path d="M58 69H75V86.5H58V69Z" fill="#FCC85E"/>
<path d="M75 71.5V0L0 86.5H60C68.2843 86.5 75 79.7843 75 71.5Z" fill="#FCC85E"/>
<path d="M37.3411 38.2392C43.2289 36.8188 50.1703 38.1842 52.8054 44.2428C55.1692 49.6811 53.5991 56.5369 48.5165 59.8213C44.0082 62.7347 37.9385 61.3925 34.1258 57.9168C29.9177 54.0816 28.997 48.107 29.531 42.6745C30.0043 37.8682 32.5471 33.7431 36.8937 31.5776C40.2706 29.8963 44.2824 29.3658 48.0056 29.8209C53.1315 30.4471 57.9053 33.6329 60.0902 38.39C61.0397 40.454 61.617 42.747 61.8681 45.0023C62.0268 46.4257 61.9979 47.849 61.9979 49.2781V54.9077C61.9979 57.3312 61.9979 59.7547 61.9979 62.1752C61.9979 64.6335 61.9979 67.0917 61.9979 69.5499C61.9979 71.5328 61.9979 73.5156 61.9979 75.4984C61.9979 76.4956 61.9979 77.4928 61.9979 78.49V78.6002C61.9979 77.9943 56.6498 76.7362 56.1822 76.6203C51.8356 75.5477 47.2379 75.2172 42.8278 76.0956C40.7468 76.5101 38.7467 77.2522 36.8533 78.206C34.4577 79.4119 32.0737 80.9657 29.225 80.6149C26.8988 80.3279 25.2681 78.8669 25.0372 76.4666C24.2925 68.7209 34.9167 64.7784 40.9286 63.8566C43.4339 63.4739 45.9795 63.3869 48.5078 63.5145C49.4112 63.5609 57.7581 64.2392 57.7581 64.8451V54.499C57.7581 49.6898 58.1708 44.8255 55.5906 40.5351C54.7391 39.1176 53.6424 37.8189 52.3089 36.8391C47.7228 33.4648 41.6704 35.3549 37.3468 38.2392H37.3411Z" fill="white"/>
</svg>
